<svg width="47" height="52" viewBox="0 0 47 52" fill="none" xmlns="http://www.w3.org/2000/svg">
<path d="M40.3594 4.57031C40.3594 2.05029 38.3091 0 35.7891 0H5.32031C2.80029 0 0.75 2.05029 0.75 4.57031V13.7109C0.75 16.231 2.80029 18.2813 5.32031 18.2813H35.7891C38.3091 18.2813 40.3594 16.231 40.3594 13.7109V12.1875H41.8828C42.7227 12.1875 43.4063 12.8711 43.4063 13.7109V19.8047C43.4063 20.6446 42.7227 21.3281 41.8828 21.3281H23.6016C21.0815 21.3281 19.0313 23.3784 19.0313 25.8984V30.4688H17.5078C16.6664 30.4688 15.9844 31.1507 15.9844 31.9922V38.003L14.4609 44.1952C13.4703 48.1573 16.464 52 20.5547 52C24.6473 52 27.6379 48.1533 26.65 44.2007L25.125 38.003V31.9922C25.125 31.1507 24.443 30.4688 23.6016 30.4688H22.0781V25.8984C22.0781 25.0586 22.7617 24.375 23.6016 24.375H41.8828C44.4028 24.375 46.4531 22.3247 46.4531 19.8047V13.7109C46.4531 11.1909 44.4028 9.14063 41.8828 9.14063H40.3594V4.57031ZM22.0781 33.5156V36.6641H19.0313V33.5156H22.0781ZM20.5547 48.9531C18.456 48.9531 16.9044 46.9834 17.4182 44.9287L18.702 39.7109H22.4074L23.6924 44.9343C24.2026 46.9746 22.6609 48.9531 20.5547 48.9531ZM5.32031 3.04688H35.7891C36.6289 3.04688 37.3125 3.73044 37.3125 4.57031V6.09375H32.7422C31.2616 6.09375 29.3684 6.64838 27.1761 7.29028C24.2149 8.15753 20.859 9.14063 17.5078 9.14063C14.2412 9.14063 11.9381 8.18649 9.9061 7.34503C8.35251 6.70154 6.88541 6.09375 5.32031 6.09375H3.79688V4.57031C3.79688 3.73044 4.48044 3.04688 5.32031 3.04688ZM37.3125 13.7109C37.3125 14.5508 36.6289 15.2344 35.7891 15.2344H5.32031C4.48044 15.2344 3.79688 14.5508 3.79688 13.7109V9.14063H5.32031C6.27921 9.14063 7.36545 9.59052 8.74011 10.1598C10.9209 11.0632 13.6349 12.1875 17.5078 12.1875C21.2962 12.1875 25.031 11.0933 28.0326 10.2146C29.9179 9.66232 31.6988 9.14063 32.7422 9.14063H37.3125V13.7109Z" fill="#FF5A30"/>
</svg>
